<svg width="50" height="50" viewBox="0 0 50 50" fill="none" xmlns="http://www.w3.org/2000/svg">
<g id="map-pin.svg">
<g id="Group">
<path id="Vector" d="M25 25C29.3147 25 32.8125 21.5022 32.8125 17.1875C32.8125 12.8728 29.3147 9.375 25 9.375C20.6853 9.375 17.1875 12.8728 17.1875 17.1875C17.1875 21.5022 20.6853 25 25 25Z" stroke="#32A461" stroke-width="3.125" stroke-linecap="round" stroke-linejoin="round"/>
<path id="Vector_2" d="M25 1.5625C29.144 1.5625 33.1183 3.2087 36.0485 6.13896C38.9788 9.06921 40.625 13.0435 40.625 17.1875C40.625 24.2854 30.0542 42.0833 26.3021 47.7396C26.1596 47.9545 25.9661 48.1307 25.7389 48.2526C25.5117 48.3746 25.2578 48.4384 25 48.4384C24.7422 48.4384 24.4883 48.3746 24.2611 48.2526C24.0339 48.1307 23.8404 47.9545 23.6979 47.7396C19.9458 42.0833 9.375 24.2854 9.375 17.1875C9.375 13.0435 11.0212 9.06921 13.9515 6.13896C16.8817 3.2087 20.856 1.5625 25 1.5625Z" stroke="#32A461" stroke-width="3.125" stroke-linecap="round" stroke-linejoin="round"/>
</g>
</g>
</svg>
