<svg width="578" height="592" viewBox="0 0 578 592" fill="none" xmlns="http://www.w3.org/2000/svg">
<path d="M258.64 0.824707C329.879 0.824707 394.427 29.717 441.111 76.4006C487.868 123.158 516.76 187.706 516.76 258.944C516.76 268.869 516.172 278.72 515.069 288.351L396.339 228.067C390.457 201.454 377.003 177.708 358.404 159.108C332.893 133.597 297.605 117.791 258.64 117.791C219.603 117.791 184.314 133.597 158.804 159.108C133.293 184.692 117.487 219.98 117.487 258.944C117.487 297.982 133.293 333.27 158.804 358.781C174.389 374.367 193.725 386.423 215.265 393.334L256.288 517.064C185.932 516.476 122.265 487.657 76.0965 441.488C29.3394 394.804 0.447266 330.256 0.447266 258.944C0.447266 187.706 29.3394 123.158 76.0965 76.4006C122.78 29.717 187.328 0.824707 258.64 0.824707ZM232.542 223.362L578 398.848L397.956 415.61L354.507 591.169L232.542 223.362Z" fill="#EAF6EF" fill-opacity="0.1"/>
</svg>
