<svg width="21" height="21" viewBox="0 0 21 21" fill="none" xmlns="http://www.w3.org/2000/svg">
<g clip-path="url(#clip0_63_566)">
<path d="M20.6583 5.35841C20.6337 5.34193 20.6047 5.33313 20.575 5.33313C20.5453 5.33313 20.5163 5.34193 20.4917 5.35841L12.3667 13.4834C12.1548 13.696 11.9027 13.8645 11.6252 13.9789C11.3477 14.0934 11.0502 14.1515 10.75 14.1501C10.142 14.1489 9.55866 13.9096 9.125 13.4834L1.00833 5.39174C0.983666 5.37526 0.954666 5.36646 0.925 5.36646C0.895334 5.36646 0.866334 5.37526 0.841667 5.39174C0.818633 5.40083 0.798207 5.41548 0.782212 5.43438C0.766217 5.45329 0.75515 5.47585 0.75 5.50007L0.75 15.5001C0.75 15.9421 0.925595 16.366 1.23816 16.6786C1.55072 16.9911 1.97464 17.1667 2.41667 17.1667H19.0833C19.5254 17.1667 19.9493 16.9911 20.2618 16.6786C20.5744 16.366 20.75 15.9421 20.75 15.5001V5.50007C20.7507 5.46999 20.7423 5.44039 20.726 5.41513C20.7096 5.38987 20.6861 5.3701 20.6583 5.35841Z" fill="#333333"/>
<path d="M10.0084 12.6334C10.206 12.8253 10.4705 12.9327 10.7459 12.9327C11.0213 12.9327 11.2859 12.8253 11.4834 12.6334L19.5584 4.55837C19.6128 4.50371 19.6509 4.43505 19.6685 4.36002C19.6862 4.28499 19.6827 4.20653 19.6584 4.13337C19.5668 3.83337 19.3084 3.83337 19.0834 3.83337H2.41676C2.18342 3.83337 1.93342 3.83337 1.84176 4.13337C1.81748 4.20653 1.81398 4.28499 1.83163 4.36002C1.84929 4.43505 1.88741 4.50371 1.94176 4.55837L10.0084 12.6334Z" fill="#333333"/>
</g>
<defs>
<clipPath id="clip0_63_566">
<rect width="20" height="20" fill="white" transform="translate(0.75 0.5)"/>
</clipPath>
</defs>
</svg>
