<svg width="20" height="21" viewBox="0 0 20 21" fill="none" xmlns="http://www.w3.org/2000/svg">
<g id="email-icon-blue.svg" clip-path="url(#clip0_47_39)">
<g id="Group">
<g id="Group_2">
<path id="Vector" d="M19.9083 5.35829C19.8837 5.3418 19.8547 5.33301 19.825 5.33301C19.7953 5.33301 19.7663 5.3418 19.7417 5.35829L11.6167 13.4833C11.4048 13.6959 11.1527 13.8644 10.8752 13.9788C10.5977 14.0932 10.3002 14.1514 10 14.15C9.392 14.1488 8.80866 13.9094 8.375 13.4833L0.258333 5.39162C0.233666 5.37514 0.204666 5.36634 0.175 5.36634C0.145334 5.36634 0.116334 5.37514 0.0916667 5.39162C0.0686326 5.40071 0.0482066 5.41536 0.0322117 5.43426C0.0162167 5.45316 0.00515031 5.47573 0 5.49995L0 15.5C0 15.942 0.175595 16.3659 0.488155 16.6785C0.800716 16.991 1.22464 17.1666 1.66667 17.1666H18.3333C18.7754 17.1666 19.1993 16.991 19.5118 16.6785C19.8244 16.3659 20 15.942 20 15.5V5.49995C20.0007 5.46987 19.9923 5.44027 19.976 5.41501C19.9596 5.38974 19.9361 5.36998 19.9083 5.35829Z" fill="#32A461"/>
<path id="Vector_2" d="M9.25836 12.6335C9.45589 12.8254 9.72045 12.9328 9.99586 12.9328C10.2713 12.9328 10.5358 12.8254 10.7334 12.6335L18.8084 4.5585C18.8627 4.50384 18.9008 4.43517 18.9185 4.36014C18.9361 4.28511 18.9326 4.20665 18.9084 4.1335C18.8167 3.8335 18.5584 3.8335 18.3334 3.8335H1.6667C1.43336 3.8335 1.18336 3.8335 1.0917 4.1335C1.06742 4.20665 1.06392 4.28511 1.08157 4.36014C1.09923 4.43517 1.13735 4.50384 1.1917 4.5585L9.25836 12.6335Z" fill="#32A461"/>
</g>
</g>
</g>
<defs>
<clipPath id="clip0_47_39">
<rect width="20" height="20" fill="white" transform="translate(0 0.5)"/>
</clipPath>
</defs>
</svg>
