<svg width="40" height="41" viewBox="0 0 40 41" fill="none" xmlns="http://www.w3.org/2000/svg">
<path id="Vector" d="M17.7611 0.0356445C22.588 0.0356445 26.9616 1.9933 30.1248 5.15644C33.2929 8.32456 35.2505 12.6982 35.2505 17.5251C35.2505 18.1975 35.2107 18.865 35.136 19.5176L27.0911 15.4329C26.6926 13.6297 25.781 12.0207 24.5208 10.7604C22.7923 9.03191 20.4012 7.96092 17.7611 7.96092C15.116 7.96092 12.725 9.03191 10.9965 10.7604C9.26796 12.4939 8.19698 14.885 8.19698 17.5251C8.19698 20.1701 9.26796 22.5612 10.9965 24.2897C12.0525 25.3457 13.3626 26.1627 14.8221 26.6309L17.6017 35.0145C12.8346 34.9746 8.52076 33.0219 5.39249 29.8937C2.22437 26.7305 0.266724 22.3569 0.266724 17.5251C0.266724 12.6982 2.22437 8.32456 5.39249 5.15644C8.55563 1.9933 12.9292 0.0356445 17.7611 0.0356445ZM15.9927 15.1141L39.4 27.0045L27.2007 28.1403L24.2568 40.0356L15.9927 15.1141Z" fill="white"/>
</svg>
