<svg xmlns="http://www.w3.org/2000/svg" width="173" height="23" viewBox="0 0 173 23" fill="none">
  <g clip-path="url(#clip0_63_1094)">
    <path d="M67.826 2.9525V2.25663L67.5271 2.05815H55.6184L55.4199 2.25663V2.9525L55.6184 3.15098H60.688L60.8864 3.34945V17.8408L61.0849 18.0392H61.9793L62.1777 17.8408V3.44511L62.3762 3.24663H67.5414L67.8404 2.95011L67.826 2.9525ZM70.5043 6.41989C67.3238 6.41989 65.4347 8.70119 65.4347 11.9677V12.4675C65.4347 15.6479 67.0249 18.4218 70.6956 18.4218C73.876 18.4218 75.0717 16.3366 75.263 14.9545L75.0669 14.7584H74.1701L73.9741 14.9545C73.4767 16.3438 72.5799 17.2381 70.7936 17.2381C67.8045 17.2381 66.9197 14.4642 66.9197 13.0773L67.1206 12.8812H75.3706L75.5714 12.6803V11.9845C75.5714 8.70837 73.7851 6.43663 70.5019 6.43663L70.5043 6.41989ZM70.5043 7.61076C71.8936 7.61076 72.8095 8.18228 73.3738 8.95228C73.9454 9.72228 74.1677 10.6884 74.1677 11.4871L73.9717 11.6879H67.013L66.8121 11.4871C66.8121 10.6931 67.0352 9.72467 67.606 8.95228C68.1775 8.18228 69.0982 7.61076 70.4995 7.61076H70.5043ZM77.8456 12.3695C77.8456 9.18902 79.4334 7.51511 81.7195 7.51511C84.0032 7.51511 84.8999 8.90445 85.1869 10.289L85.3854 10.4875H86.3778L86.5762 10.289C86.3778 8.00532 84.491 6.41511 81.7219 6.41511C78.7327 6.41511 76.461 8.30185 76.461 12.3695C76.461 16.5303 78.7447 18.3238 81.7219 18.3238C84.4958 18.3238 86.2893 16.736 86.5762 14.4499L86.3778 14.2514H85.4834L85.2849 14.4499C85.0864 15.8392 84.0941 17.2238 81.8175 17.2238C79.5338 17.2238 77.8456 15.636 77.8456 12.3695ZM97.6934 17.9412V10.9825C97.6934 7.99337 96.1056 6.41511 93.5325 6.41511C91.9447 6.41511 90.5434 7.11098 89.8499 8.30185H89.6514V2.3475L89.3525 2.05098H88.4582L88.2597 2.24945V17.9364L88.4582 18.1349H89.3525L89.551 17.9364V11.6712C89.551 9.08858 90.7419 7.51032 93.2336 7.51032C95.1204 7.51032 96.2227 8.70119 96.2227 10.9777V17.9364L96.4212 18.1349H97.3156L97.7125 17.9364L97.6934 17.9412ZM109.411 17.9412V10.9825C109.411 7.99337 107.823 6.41511 105.25 6.41511C103.662 6.41511 102.261 7.11098 101.567 8.30185H101.369L101.17 6.9125L100.972 6.71402H100.276L100.078 6.9125V17.9364L100.276 18.1349H101.17L101.369 17.9364V11.6712C101.369 9.08858 102.56 7.51032 105.051 7.51032C106.938 7.51032 108.041 8.70119 108.041 10.9777V17.9364L108.239 18.1349H109.231L109.43 17.9364L109.411 17.9412ZM116.059 6.51076C113.069 6.51076 110.798 8.59837 110.798 12.4651C110.798 16.339 113.084 18.4195 116.059 18.4195C119.033 18.4195 121.319 16.3366 121.319 12.4651C121.319 8.59119 119.033 6.51076 116.059 6.51076ZM116.059 7.60358C117.202 7.60358 118.168 8.07706 118.856 8.92119C119.538 9.76532 119.935 10.9825 119.935 12.4603C119.935 13.9501 119.538 15.1625 118.856 15.9995C118.175 16.8436 117.206 17.3123 116.059 17.3123C114.916 17.3123 113.949 16.8436 113.261 15.9995C112.579 15.1553 112.182 13.9382 112.182 12.4603C112.182 10.9203 112.579 9.71032 113.261 8.87337C113.942 8.04119 114.911 7.59402 116.059 7.59402V7.60358ZM124.404 17.934V2.24706L124.105 2.04858H123.211L123.013 2.24706V17.934L123.211 18.1325H124.105L124.404 17.934ZM131.267 6.50358C128.278 6.50358 126.006 8.59119 126.006 12.4579C126.006 16.3318 128.293 18.4123 131.267 18.4123C134.242 18.4123 136.528 16.3295 136.528 12.4579C136.528 8.58402 134.247 6.50358 131.267 6.50358ZM131.267 7.59641C132.41 7.59641 133.374 8.06989 134.065 8.91402C134.747 9.75815 135.148 10.9753 135.148 12.4531C135.148 13.9429 134.747 15.1553 134.065 15.9923C133.384 16.8364 132.418 17.3051 131.267 17.3051C130.124 17.3051 129.158 16.8364 128.469 15.9923C127.783 15.1481 127.381 13.931 127.381 12.4531C127.381 10.9131 127.783 9.70315 128.465 8.86619C129.146 8.03402 130.115 7.58684 131.263 7.58684L131.267 7.59641ZM142.578 6.40554C139.398 6.40554 137.7 8.98815 137.7 12.3599C137.7 15.8273 139.29 18.3142 142.578 18.3142C144.663 18.3142 145.759 17.4199 146.261 16.4275V16.5255C146.261 19.5147 145.567 21.7864 142.793 21.7864C140.708 21.7864 140.02 20.8945 139.804 19.7036L139.603 19.5027H138.711L138.511 19.7036C138.709 21.5903 140.103 22.884 142.887 22.884C145.876 22.884 147.765 20.9973 147.765 16.4275V6.88619L147.564 6.69011H146.868L146.672 6.88619L146.471 8.27793H146.275C145.778 7.38358 144.685 6.39119 142.593 6.39119L142.578 6.40554ZM142.578 7.49837C143.721 7.49837 144.639 7.89293 145.28 8.6988C145.914 9.50467 146.261 10.7218 146.261 12.3575C146.261 13.9955 145.914 15.2031 145.28 16.0162C144.647 16.8221 143.728 17.2214 142.578 17.2214C141.435 17.2214 140.517 16.8221 139.876 16.0162C139.242 15.2103 138.9 13.9931 138.9 12.3575C138.9 10.7697 139.245 9.55967 139.876 8.72271C140.51 7.9025 141.428 7.48402 142.578 7.48402V7.49837ZM151.306 4.6288V3.23945L151.108 3.04098H150.214L149.915 3.23945V4.6288L150.113 4.82728H151.008L151.306 4.6288ZM151.306 17.9245V6.90054L151.108 6.70206H150.214L149.915 6.90054V17.9245L150.113 18.1229H151.008L151.306 17.9245ZM157.954 6.39837C154.774 6.39837 152.885 8.67967 152.885 11.9462V12.446C152.885 15.6264 154.475 18.4003 158.146 18.4003C161.326 18.4003 162.522 16.3151 162.713 14.9329L162.512 14.7368H161.62L161.419 14.9329C160.922 16.3223 160.03 17.2166 158.239 17.2166C155.25 17.2166 154.365 14.4427 154.365 13.0558L154.566 12.8597H162.816L163.017 12.6588V11.9629C163.017 8.7825 161.128 6.41511 157.947 6.41511L157.954 6.39837ZM157.954 7.58924C159.344 7.58924 160.264 8.16076 160.848 8.93076C161.419 9.70076 161.642 10.6668 161.642 11.4655L161.441 11.6664H154.482L154.286 11.4655C154.286 10.6716 154.509 9.70315 155.08 8.93076C155.651 8.16076 156.567 7.58924 157.949 7.58924H157.954ZM172.756 15.1458C172.756 13.0605 171.566 12.1566 169.289 11.6784C167.005 11.181 165.606 10.9825 165.606 9.39467C165.606 8.2038 166.501 7.50793 168.189 7.50793C170.274 7.50793 170.963 8.40228 170.963 9.59315L171.161 9.79163H172.056L172.255 9.59315C172.255 7.30945 170.368 6.41271 168.094 6.41271C165.511 6.41271 164.22 7.80206 164.22 9.40184C164.22 11.2886 165.609 12.1758 167.902 12.5823C170.186 13.0797 171.37 13.2782 171.37 15.1649C171.37 16.3558 170.674 17.2501 168.381 17.2501C166.295 17.2501 165.391 16.0592 165.391 14.6675L165.193 14.469H164.298L164.1 14.6675C164.1 16.7527 165.688 18.3501 168.476 18.3501C171.345 18.4505 172.756 17.0588 172.756 15.1697L172.756 15.1458Z" fill="#808080"/>
    <path d="M55.3907 14.7489V18.0249H45.0603V1.81189H48.8146V14.7249H55.3907V14.7489ZM24.0646 0.903198L14.9059 7.95755C13.9662 4.44233 10.9125 1.85972 7.15812 1.85972H0.582031V18.0728H7.15812C10.9125 18.0728 14.2125 15.4902 14.9059 11.9749L24.0646 19.0293L33.2233 11.9749V18.0728H43.5538V14.7728H36.7386V1.85972H32.9842V7.95755L24.3038 15.0119L22.4266 13.3667L26.6592 10.0667L31.1309 6.55146L28.5483 4.43994L19.8679 11.2552L17.9907 9.60994L26.6712 3.03385L24.0886 0.922329H24.084L24.0646 0.903198ZM4.09725 5.13581H6.91899C7.50486 5.13581 8.08116 5.26733 8.60964 5.50885C9.13812 5.75037 9.62355 6.10429 10.0349 6.54668C10.4462 6.98668 10.7809 7.51276 11.0153 8.10581C11.2501 8.70124 11.3788 9.36363 11.3788 10.0667C11.3788 10.7123 11.2637 11.3412 11.0464 11.9247C10.8297 12.5082 10.5131 13.0439 10.1162 13.4982C9.71921 13.9525 9.24573 14.3256 8.70529 14.5862C8.16486 14.8469 7.56225 14.9928 6.9166 14.9928H4.09486V5.14059L4.09725 5.13581Z" fill="#007DB8"/>
  </g>
  <defs>
    <clipPath id="clip0_63_1094">
      <rect width="172.174" height="22" fill="white" transform="translate(0.629883 0.903198)"/>
    </clipPath>
  </defs>
</svg>