<svg width="57" height="57" viewBox="0 0 57 57" fill="none" xmlns="http://www.w3.org/2000/svg">
<g id="el:search-alt" clip-path="url(#clip0_34_93)">
<path id="Vector" d="M28.3901 0.998535C43.8541 0.998535 56.3901 13.5346 56.3901 28.9985C56.3901 44.4625 43.8541 56.9985 28.3901 56.9985C12.9262 56.9985 0.390137 44.4625 0.390137 28.9985C0.390137 13.5346 12.9262 0.998535 28.3901 0.998535ZM26.4692 13.1323C18.9777 13.1323 12.9067 19.2067 12.9067 26.6982C12.9067 34.1898 18.9777 40.2607 26.4692 40.2607C28.7364 40.2607 30.8731 39.7061 32.7515 38.7227C32.7495 38.7313 32.7465 38.7414 32.7446 38.75L38.8628 44.8647L43.8735 39.8506L37.9741 33.9478C37.9644 33.9434 37.9531 33.9417 37.9434 33.9375C39.2681 31.8425 40.0352 29.3601 40.0352 26.6982C40.0352 19.2067 33.9608 13.1323 26.4692 13.1323ZM26.4692 19.1582C30.6325 19.1582 34.0093 22.535 34.0093 26.6982C34.0093 30.8615 30.6325 34.2349 26.4692 34.2349C22.3059 34.2349 18.9326 30.8615 18.9326 26.6982C18.9326 22.535 22.3059 19.1582 26.4692 19.1582Z" fill="#32A461"/>
</g>
<defs>
<clipPath id="clip0_34_93">
<rect width="56" height="56" fill="white" transform="matrix(-1 0 0 1 56.3901 0.998535)"/>
</clipPath>
</defs>
</svg>
