<svg width="39" height="40" viewBox="0 0 39 40" fill="none" xmlns="http://www.w3.org/2000/svg">
<g clip-path="url(#clip0_47_17)">
<path d="M19.397 0.66626C21.1329 0.66626 22.8072 0.89533 24.4199 1.35347C26.0326 1.81161 27.5407 2.46701 28.9442 3.31966C30.3476 4.17231 31.6218 5.1904 32.7667 6.37394C33.9117 7.55747 34.8965 8.88099 35.7214 10.3445C36.5462 11.808 37.1802 13.367 37.6234 15.0214C38.0666 16.6758 38.2944 18.4065 38.3067 20.2136C38.3067 22.008 38.0851 23.7388 37.6419 25.4059C37.1987 27.073 36.5647 28.632 35.7398 30.0827C34.915 31.5335 33.9301 32.8507 32.7852 34.0342C31.6403 35.2177 30.3599 36.2358 28.9442 37.0885C27.5284 37.9411 26.0203 38.5965 24.4199 39.0547C22.8195 39.5128 21.1452 39.7483 19.397 39.761C17.6612 39.761 15.9869 39.5319 14.3741 39.0738C12.7614 38.6156 11.2533 37.9602 9.84986 37.1076C8.44641 36.2549 7.17223 35.2368 6.0273 34.0533C4.88238 32.8698 3.89751 31.5463 3.07267 30.0827C2.24784 28.6192 1.61382 27.0666 1.17062 25.425C0.72743 23.7833 0.499677 22.0462 0.487366 20.2136C0.487366 18.4192 0.708963 16.6885 1.15216 15.0214C1.59535 13.3542 2.22937 11.7953 3.0542 10.3445C3.87904 8.89371 4.86392 7.57656 6.00884 6.39303C7.15376 5.20949 8.4341 4.1914 9.84986 3.33875C11.2656 2.4861 12.7676 1.8307 14.3557 1.37256C15.9438 0.91442 17.6242 0.678986 19.397 0.66626ZM19.397 37.3176C20.9113 37.3176 22.3701 37.1139 23.7736 36.7067C25.177 36.2995 26.4943 35.7268 27.7254 34.9887C28.9565 34.2506 30.0768 33.3534 31.0863 32.2971C32.0958 31.2408 32.9576 30.0891 33.6716 28.8419C34.3856 27.5948 34.9458 26.2331 35.352 24.7569C35.7583 23.2806 35.9553 21.7662 35.943 20.2136C35.943 18.6483 35.746 17.1403 35.352 15.6895C34.9581 14.2387 34.4041 12.877 33.6901 11.6044C32.976 10.3318 32.1081 9.17369 31.0863 8.13014C30.0645 7.0866 28.9503 6.19577 27.7439 5.45765C26.5374 4.71954 25.2201 4.1405 23.792 3.72053C22.364 3.30057 20.899 3.09695 19.397 3.10968C17.8828 3.10968 16.4239 3.3133 15.0205 3.72053C13.617 4.12777 12.2997 4.70045 11.0686 5.43856C9.83755 6.17668 8.71725 7.07387 7.70775 8.13014C6.69825 9.18641 5.83648 10.3381 5.12245 11.5853C4.40841 12.8325 3.84826 14.1942 3.442 15.6704C3.03574 17.1466 2.83876 18.661 2.85107 20.2136C2.85107 21.7789 3.04805 23.287 3.442 24.7378C3.83595 26.1885 4.38995 27.5502 5.10398 28.8229C5.81802 30.0955 6.68594 31.2535 7.70775 32.2971C8.72956 33.3406 9.84371 34.2315 11.0502 34.9696C12.2567 35.7077 13.5739 36.2867 15.002 36.7067C16.4301 37.1267 17.8951 37.3303 19.397 37.3176Z" fill="#F8F8F8"/>
<path d="M13.5637 16.8804L18.5637 21.8804M12.7304 21.8804L17.7304 16.8804L19.3971 14.3804M11.0637 14.3804H21.0637M15.2304 11.8804H16.0637M27.7304 28.547L23.5637 20.2137L19.3971 28.547M21.0637 25.2137H26.0637" stroke="#F8F8F8" stroke-width="1.5" stroke-linecap="round" stroke-linejoin="round"/>
</g>
<defs>
<clipPath id="clip0_47_17">
<rect width="37.8193" height="39.0947" fill="white" transform="translate(0.487366 0.66626)"/>
</clipPath>
</defs>
</svg>
