<svg width="39" height="40" viewBox="0 0 39 40" fill="none" xmlns="http://www.w3.org/2000/svg">
<g clip-path="url(#clip0_47_23)">
<path d="M19.4797 0.40332C21.2239 0.40332 22.9062 0.632391 24.5266 1.09053C26.1471 1.54867 27.6624 2.20407 29.0725 3.05672C30.4827 3.90937 31.7629 4.92747 32.9133 6.111C34.0637 7.29453 35.0533 8.61805 35.8821 10.0816C36.7109 11.5451 37.3479 13.104 37.7932 14.7584C38.2385 16.4128 38.4674 18.1436 38.4797 19.9507C38.4797 21.7451 38.2571 23.4758 37.8118 25.1429C37.3665 26.8101 36.7294 28.369 35.9006 29.8198C35.0719 31.2706 34.0823 32.5877 32.9319 33.7713C31.7815 34.9548 30.495 35.9729 29.0725 36.8256C27.65 37.6782 26.1347 38.3336 24.5266 38.7917C22.9185 39.2499 21.2362 39.4853 19.4797 39.498C17.7356 39.498 16.0533 39.269 14.4329 38.8108C12.8124 38.3527 11.2971 37.6973 9.88696 36.8446C8.47681 35.992 7.19653 34.9739 6.04614 33.7904C4.89575 32.6068 3.90617 31.2833 3.07739 29.8198C2.24862 28.3563 1.61157 26.8037 1.16626 25.162C0.720947 23.5204 0.492106 21.7832 0.479736 19.9507C0.479736 18.1563 0.702393 16.4255 1.14771 14.7584C1.59302 13.0913 2.23006 11.5323 3.05884 10.0816C3.88761 8.63077 4.8772 7.31362 6.02759 6.13009C7.17798 4.94655 8.46444 3.92846 9.88696 3.07581C11.3095 2.22316 12.8186 1.56776 14.4143 1.10962C16.01 0.65148 17.6985 0.416046 19.4797 0.40332ZM19.4797 37.0546C21.0012 37.0546 22.467 36.851 23.8772 36.4438C25.2874 36.0365 26.6109 35.4639 27.8479 34.7257C29.0849 33.9876 30.2105 33.0904 31.2249 32.0342C32.2392 30.9779 33.1051 29.8262 33.8225 28.579C34.54 27.3318 35.1028 25.9701 35.511 24.4939C35.9192 23.0177 36.1171 21.5033 36.1047 19.9507C36.1047 18.3854 35.9068 16.8773 35.511 15.4265C35.1152 13.9758 34.5585 12.6141 33.8411 11.3414C33.1236 10.0688 32.2515 8.91075 31.2249 7.8672C30.1982 6.82366 29.0787 5.93283 27.8665 5.19471C26.6542 4.4566 25.3306 3.87756 23.8958 3.4576C22.4609 3.03763 20.9889 2.83401 19.4797 2.84674C17.9583 2.84674 16.4924 3.05036 15.0823 3.4576C13.6721 3.86483 12.3486 4.43751 11.1116 5.17562C9.87459 5.91374 8.74894 6.81093 7.73462 7.8672C6.7203 8.92347 5.85441 10.0752 5.13696 11.3224C4.41951 12.5695 3.85669 13.9312 3.44849 15.4074C3.04028 16.8837 2.84237 18.3981 2.85474 19.9507C2.85474 21.516 3.05265 23.024 3.44849 24.4748C3.84432 25.9256 4.40096 27.2873 5.11841 28.5599C5.83586 29.8325 6.70793 30.9906 7.73462 32.0342C8.76131 33.0777 9.88078 33.9685 11.093 34.7066C12.3053 35.4448 13.6288 36.0238 15.0637 36.4438C16.4986 36.8637 17.9706 37.0673 19.4797 37.0546Z" fill="#F8F8F8"/>
<path d="M19.4797 24.5342L20.3964 22.7008V17.9873C21.974 17.5776 23.1464 16.154 23.1464 14.4508C23.1464 12.4287 21.5019 10.7842 19.4797 10.7842C17.4575 10.7842 15.813 12.4287 15.813 14.4508C15.813 16.154 16.9855 17.5776 18.563 17.9873V22.7008L19.4797 24.5342ZM17.6464 14.4508C17.6464 13.4398 18.4686 12.6175 19.4797 12.6175C20.4908 12.6175 21.313 13.4398 21.313 14.4508C21.313 15.4619 20.4908 16.2842 19.4797 16.2842C18.4686 16.2842 17.6464 15.4619 17.6464 14.4508Z" fill="#F8F8F8"/>
<path d="M23.3911 18.6332L22.9025 20.4006C25.2776 21.0569 26.813 22.3192 26.813 23.6172C26.813 25.3515 23.8018 27.2838 19.4797 27.2838C15.1576 27.2838 12.1464 25.3515 12.1464 23.6172C12.1464 22.3192 13.6818 21.0569 16.0578 20.3997L15.5692 18.6323C12.327 19.5288 10.313 21.4382 10.313 23.6172C10.313 26.7008 14.34 29.1172 19.4797 29.1172C24.6195 29.1172 28.6464 26.7008 28.6464 23.6172C28.6464 21.4382 26.6325 19.5288 23.3911 18.6332Z" fill="#F8F8F8"/>
</g>
<defs>
<clipPath id="clip0_47_23">
<rect width="38" height="39.0947" fill="white" transform="translate(0.479736 0.40332)"/>
</clipPath>
</defs>
</svg>
