<svg width="39" height="40" viewBox="0 0 39 40" fill="none" xmlns="http://www.w3.org/2000/svg">
<g id="fluent-mdl2:website" clip-path="url(#clip0_47_11)">
<path id="Vector" d="M19.2682 0.763672C21.0123 0.763672 22.6946 0.992742 24.3151 1.45088C25.9355 1.90902 27.4508 2.56442 28.861 3.41707C30.2711 4.26973 31.5514 5.28782 32.7018 6.47135C33.8522 7.65488 34.8418 8.9784 35.6705 10.4419C36.4993 11.9054 37.1364 13.4644 37.5817 15.1188C38.027 16.7732 38.2558 18.5039 38.2682 20.311C38.2682 22.1054 38.0455 23.8362 37.6002 25.5033C37.1549 27.1704 36.5179 28.7294 35.6891 30.1802C34.8603 31.6309 33.8707 32.9481 32.7203 34.1316C31.5699 35.3152 30.2835 36.3332 28.861 37.1859C27.4384 38.0386 25.9231 38.6939 24.3151 39.1521C22.707 39.6102 21.0247 39.8457 19.2682 39.8584C17.524 39.8584 15.8418 39.6293 14.2213 39.1712C12.6009 38.713 11.0856 38.0576 9.67542 37.205C8.26526 36.3523 6.98499 35.3342 5.83459 34.1507C4.6842 32.9672 3.69462 31.6437 2.86584 30.1802C2.03707 28.7167 1.40002 27.1641 0.954712 25.5224C0.509399 23.8807 0.280558 22.1436 0.268188 20.311C0.268188 18.5166 0.490845 16.7859 0.936157 15.1188C1.38147 13.4516 2.01851 11.8927 2.84729 10.4419C3.67607 8.99113 4.66565 7.67397 5.81604 6.49044C6.96643 5.30691 8.25289 4.28881 9.67542 3.43616C11.0979 2.58351 12.6071 1.92811 14.2028 1.46997C15.7985 1.01183 17.4869 0.776398 19.2682 0.763672ZM19.2682 37.415C20.7897 37.415 22.2555 37.2114 23.6656 36.8041C25.0758 36.3969 26.3994 35.8242 27.6364 35.0861C28.8733 34.348 29.999 33.4508 31.0133 32.3945C32.0276 31.3382 32.8935 30.1865 33.611 28.9394C34.3284 27.6922 34.8912 26.3305 35.2994 24.8543C35.7076 23.378 35.9056 21.8636 35.8932 20.311C35.8932 18.7457 35.6953 17.2377 35.2994 15.7869C34.9036 14.3361 34.347 12.9744 33.6295 11.7018C32.9121 10.4292 32.04 9.2711 31.0133 8.22756C29.9866 7.18401 28.8671 6.29318 27.6549 5.55507C26.4427 4.81695 25.1191 4.23791 23.6842 3.81795C22.2493 3.39798 20.7773 3.19437 19.2682 3.20709C17.7467 3.20709 16.2809 3.41071 14.8707 3.81795C13.4606 4.22518 12.137 4.79786 10.9 5.53598C9.66304 6.27409 8.53739 7.17129 7.52307 8.22756C6.50875 9.28383 5.64286 10.4355 4.92542 11.6827C4.20797 12.9299 3.64514 14.2916 3.23694 15.7678C2.82874 17.244 2.63082 18.7584 2.64319 20.311C2.64319 21.8763 2.84111 23.3844 3.23694 24.8352C3.63277 26.286 4.18941 27.6477 4.90686 28.9203C5.62431 30.1929 6.49638 31.351 7.52307 32.3945C8.54976 33.438 9.66923 34.3289 10.8815 35.067C12.0937 35.8051 13.4173 36.3842 14.8522 36.8041C16.2871 37.2241 17.7591 37.4277 19.2682 37.415ZM30.3453 20.6165L31.236 17.8676H32.6276L31.0504 22.7545H29.6588L28.7682 20.0056L27.8776 22.7545H26.486L24.9088 17.8676H26.3004L27.191 20.6165L28.0817 17.8676H29.4547L30.3453 20.6165ZM21.736 17.8676H23.1276L21.5504 22.7545H20.1588L19.2682 20.0056L18.3776 22.7545H16.986L15.4088 17.8676H16.8004L17.691 20.6165L18.5817 17.8676H19.9547L20.8453 20.6165L21.736 17.8676ZM12.236 17.8676H13.6276L12.0504 22.7545H10.6588L9.76819 20.0056L8.87756 22.7545H7.48596L5.90881 17.8676H7.30042L8.19104 20.6165L9.08167 17.8676H10.4547L11.3453 20.6165L12.236 17.8676Z" fill="#F8F8F8"/>
</g>
<defs>
<clipPath id="clip0_47_11">
<rect width="38" height="39.0947" fill="white" transform="translate(0.268188 0.763672)"/>
</clipPath>
</defs>
</svg>
