<svg width="22" height="22" viewBox="0 0 22 22" fill="none" xmlns="http://www.w3.org/2000/svg">
<g id="Group">
<path id="Vector" d="M5.05908 20.6592H11.1459" stroke="#32A461" stroke-width="0.833333" stroke-linecap="round" stroke-linejoin="round"/>
<path id="Vector_2" d="M8.10242 18.8438V20.6593" stroke="#32A461" stroke-width="0.833333" stroke-linecap="round" stroke-linejoin="round"/>
<path id="Vector_3" d="M1.14612 17.0281H15.0588" stroke="#32A461" stroke-width="0.833333" stroke-linecap="round" stroke-linejoin="round"/>
<path id="Vector_4" d="M18.7641 8.40447C19.4136 8.32094 20.0123 7.99522 20.45 7.48729C20.8876 6.97936 21.1347 6.32343 21.1458 5.64035C21.1459 5.26931 21.0743 4.90207 20.9353 4.5606C20.7963 4.21912 20.5927 3.91045 20.3367 3.65305C20.0807 3.39565 19.7776 3.19483 19.4456 3.06259C19.1135 2.93036 18.7593 2.86945 18.4041 2.88349C18.0549 2.10474 17.4667 1.46995 16.7327 1.07973C15.9987 0.689512 15.161 0.566187 14.3523 0.729304C13.5436 0.892421 12.8102 1.33265 12.2683 1.98021C11.7264 2.62777 11.407 3.44562 11.3608 4.30413C11.0721 4.24157 10.7737 4.24693 10.4873 4.31981C10.2008 4.39269 9.93354 4.53125 9.70481 4.72545C9.47607 4.91964 9.29164 5.16459 9.16491 5.44249C9.03818 5.72039 8.97234 6.02427 8.97217 6.33206C8.97518 6.6151 9.03301 6.89458 9.14218 7.15368C9.25134 7.41278 9.40958 7.64615 9.60738 7.83976C9.80518 8.03336 10.0385 8.18319 10.2932 8.28024C10.5479 8.37729 10.8187 8.41954 11.0895 8.40447H18.7641Z" stroke="#32A461" stroke-width="0.833333" stroke-linecap="round" stroke-linejoin="round"/>
<path id="Vector_5" d="M15.0588 10.2201V17.4022C15.0687 17.7739 14.9368 18.1344 14.6923 18.4047C14.4478 18.6749 14.1105 18.8328 13.7545 18.8438H2.45046C2.09449 18.8328 1.75722 18.6749 1.51268 18.4047C1.26814 18.1344 1.13631 17.7739 1.14614 17.4022V9.31232C1.14614 8.95119 1.28356 8.60485 1.52817 8.3495C1.77277 8.09414 2.10453 7.95068 2.45046 7.95068H6.79817" stroke="#32A461" stroke-width="0.833333" stroke-linecap="round" stroke-linejoin="round"/>
<path id="Vector_6" d="M8.10242 11.1279V15.2128" stroke="#32A461" stroke-width="0.833333" stroke-linecap="round" stroke-linejoin="round"/>
<path id="Vector_7" d="M6.3634 12.9434L8.10249 11.1279L9.84158 12.9434" stroke="#32A461" stroke-width="0.833333" stroke-linecap="round" stroke-linejoin="round"/>
</g>
</svg>
