 <svg
                  xmlns="http://www.w3.org/2000/svg"
                  viewBox="0 0 110 111"
                  fill="none"
                >
                  <path
                    d="M32.25 36.2392C32.25 37.0891 32.9348 37.9043 34.1538 38.5053C35.3728 39.1064 37.0261 39.444 38.75 39.444C40.4739 39.444 42.1272 39.1064 43.3462 38.5053C44.5652 37.9043 45.25 37.0891 45.25 36.2392C45.25 35.3892 44.5652 34.574 43.3462 33.973C42.1272 33.372 40.4739 33.0343 38.75 33.0343C37.0261 33.0343 35.3728 33.372 34.1538 33.973C32.9348 34.574 32.25 35.3892 32.25 36.2392Z"
                    stroke="white"
                    stroke-width="2"
                    stroke-linecap="round"
                    stroke-linejoin="round"
                  />
                  <path
                    d="M45.25 41.5784C45.25 43.3475 42.338 44.7833 38.75 44.7833C35.162 44.7833 32.25 43.3475 32.25 41.5784"
                    stroke="white"
                    stroke-width="2"
                    stroke-linecap="round"
                    stroke-linejoin="round"
                  />
                  <path
                    d="M45.25 36.237V46.9199C45.25 48.689 42.338 50.1247 38.75 50.1247C35.162 50.1247 32.25 48.689 32.25 46.9199V36.237"
                    stroke="white"
                    stroke-width="2"
                    stroke-linecap="round"
                    stroke-linejoin="round"
                  />
                  <path
                    d="M64.75 36.2392C64.75 37.0891 65.4348 37.9043 66.6538 38.5053C67.8728 39.1064 69.5261 39.444 71.25 39.444C72.9739 39.444 74.6272 39.1064 75.8462 38.5053C77.0652 37.9043 77.75 37.0891 77.75 36.2392C77.75 35.3892 77.0652 34.574 75.8462 33.973C74.6272 33.372 72.9739 33.0343 71.25 33.0343C69.5261 33.0343 67.8728 33.372 66.6538 33.973C65.4348 34.574 64.75 35.3892 64.75 36.2392Z"
                    stroke="white"
                    stroke-width="2"
                    stroke-linecap="round"
                    stroke-linejoin="round"
                  />
                  <path
                    d="M77.75 41.5784C77.75 43.3475 74.838 44.7833 71.25 44.7833C67.662 44.7833 64.75 43.3475 64.75 41.5784"
                    stroke="white"
                    stroke-width="2"
                    stroke-linecap="round"
                    stroke-linejoin="round"
                  />
                  <path
                    d="M77.75 36.237V46.9199C77.75 48.689 74.838 50.1247 71.25 50.1247C67.662 50.1247 64.75 48.689 64.75 46.9199V36.237"
                    stroke="white"
                    stroke-width="2"
                    stroke-linecap="round"
                    stroke-linejoin="round"
                  />
                  <path
                    d="M32.25 64.0147C32.25 64.8647 32.9348 65.6798 34.1538 66.2809C35.3728 66.8819 37.0261 67.2195 38.75 67.2195C40.4739 67.2195 42.1272 66.8819 43.3462 66.2809C44.5652 65.6798 45.25 64.8647 45.25 64.0147C45.25 63.1647 44.5652 62.3495 43.3462 61.7485C42.1272 61.1475 40.4739 60.8098 38.75 60.8098C37.0261 60.8098 35.3728 61.1475 34.1538 61.7485C32.9348 62.3495 32.25 63.1647 32.25 64.0147Z"
                    stroke="white"
                    stroke-width="2"
                    stroke-linecap="round"
                    stroke-linejoin="round"
                  />
                  <path
                    d="M45.25 69.354C45.25 71.1231 42.338 72.5589 38.75 72.5589C35.162 72.5589 32.25 71.1231 32.25 69.354"
                    stroke="white"
                    stroke-width="2"
                    stroke-linecap="round"
                    stroke-linejoin="round"
                  />
                  <path
                    d="M45.25 64.0125V74.6953C45.25 76.4644 42.338 77.9002 38.75 77.9002C35.162 77.9002 32.25 76.4644 32.25 74.6953V64.0125"
                    stroke="white"
                    stroke-width="2"
                    stroke-linecap="round"
                    stroke-linejoin="round"
                  />
                  <path
                    d="M64.75 64.0147C64.75 64.8647 65.4348 65.6798 66.6538 66.2809C67.8728 66.8819 69.5261 67.2195 71.25 67.2195C72.9739 67.2195 74.6272 66.8819 75.8462 66.2809C77.0652 65.6798 77.75 64.8647 77.75 64.0147C77.75 63.1647 77.0652 62.3495 75.8462 61.7485C74.6272 61.1475 72.9739 60.8098 71.25 60.8098C69.5261 60.8098 67.8728 61.1475 66.6538 61.7485C65.4348 62.3495 64.75 63.1647 64.75 64.0147Z"
                    stroke="white"
                    stroke-width="2"
                    stroke-linecap="round"
                    stroke-linejoin="round"
                  />
                  <path
                    d="M77.75 69.354C77.75 71.1231 74.838 72.5589 71.25 72.5589C67.662 72.5589 64.75 71.1231 64.75 69.354"
                    stroke="white"
                    stroke-width="2"
                    stroke-linecap="round"
                    stroke-linejoin="round"
                  />
                  <path
                    d="M77.75 64.0125V74.6953C77.75 76.4644 74.838 77.9002 71.25 77.9002C67.662 77.9002 64.75 76.4644 64.75 74.6953V64.0125"
                    stroke="white"
                    stroke-width="2"
                    stroke-linecap="round"
                    stroke-linejoin="round"
                  />
                  <path
                    d="M45.0029 47.7916L65.0078 63.1215"
                    stroke="white"
                    stroke-width="2"
                    stroke-linecap="round"
                    stroke-linejoin="round"
                  />
                  <path
                    d="M45.0029 63.1215L65.0078 47.7916"
                    stroke="white"
                    stroke-width="2"
                    stroke-linecap="round"
                    stroke-linejoin="round"
                  />
                </svg>