<svg xmlns="http://www.w3.org/2000/svg" width="54" height="55" viewBox="0 0 54 55" fill="none">
  <path d="M11.1749 53.4673H27.0005" stroke="white" stroke-width="2" stroke-linecap="round" stroke-linejoin="round"/>
  <path d="M19.0875 48.7466V53.4669" stroke="white" stroke-width="2" stroke-linecap="round" stroke-linejoin="round"/>
  <path d="M1.00127 44.0261H37.174" stroke="white" stroke-width="2" stroke-linecap="round" stroke-linejoin="round"/>
  <path d="M46.8077 21.6049C48.4964 21.3877 50.0531 20.5408 51.191 19.2202C52.3289 17.8996 52.9713 16.1942 53 14.4182C53.0004 13.4536 52.8143 12.4987 52.4528 11.6109C52.0914 10.7231 51.562 9.92052 50.8965 9.25129C50.2309 8.58206 49.4429 8.05992 48.5795 7.71612C47.7161 7.37232 46.7951 7.21394 45.8717 7.25045C44.9637 5.22572 43.4344 3.57528 41.5261 2.56071C39.6178 1.54615 37.4397 1.22551 35.3371 1.64961C33.2345 2.07371 31.3276 3.21829 29.9187 4.90194C28.5098 6.58559 27.6794 8.71198 27.5593 10.9441C26.8087 10.7814 26.0329 10.7954 25.2881 10.9849C24.5434 11.1743 23.8484 11.5346 23.2537 12.0395C22.659 12.5444 22.1795 13.1813 21.85 13.9038C21.5205 14.6263 21.3493 15.4164 21.3489 16.2167C21.3567 16.9526 21.5071 17.6792 21.7909 18.3529C22.0747 19.0265 22.4861 19.6333 23.0004 20.1367C23.5147 20.64 24.1212 21.0296 24.7834 21.2819C25.4457 21.5342 26.1499 21.6441 26.8539 21.6049H46.8077Z" stroke="white" stroke-width="2" stroke-linecap="round" stroke-linejoin="round"/>
  <path d="M37.1741 26.3251V44.9986C37.1996 45.9649 36.8569 46.9022 36.2211 47.6049C35.5853 48.3076 34.7084 48.7182 33.7829 48.7466H4.39253C3.46702 48.7182 2.59012 48.3076 1.95432 47.6049C1.31852 46.9022 0.975779 45.9649 1.00133 44.9986V23.965C1.00133 23.026 1.35862 22.1256 1.99459 21.4617C2.63056 20.7977 3.49313 20.4247 4.39253 20.4247H15.6965" stroke="white" stroke-width="2" stroke-linecap="round" stroke-linejoin="round"/>
  <path d="M19.0875 28.6855V39.3062" stroke="white" stroke-width="2" stroke-linecap="round" stroke-linejoin="round"/>
  <path d="M14.5661 33.4058L19.0877 28.6855L23.6093 33.4058" stroke="white" stroke-width="2" stroke-linecap="round" stroke-linejoin="round"/>
</svg>