<svg xmlns="http://www.w3.org/2000/svg" width="52" height="53" viewBox="0 0 52 53" fill="none">
  <g clip-path="url(#clip0_60_129)">
    <path d="M11.9188 51.4674H40.0855" stroke="white" stroke-width="2" stroke-linecap="round" stroke-linejoin="round"/>
    <path d="M27.0855 40.634V51.4674" stroke="white" stroke-width="2" stroke-linecap="round" stroke-linejoin="round"/>
    <path d="M50.9166 23.3007C50.9166 24.4499 50.4601 25.5521 49.6474 26.3648C48.8347 27.1775 47.7325 27.634 46.5833 27.634H5.41665C4.26738 27.634 3.16518 27.1775 2.35252 26.3648C1.53986 25.5521 1.08331 24.4499 1.08331 23.3007V18.9674C1.08331 17.8181 1.53986 16.7159 2.35252 15.9032C3.16518 15.0906 4.26738 14.634 5.41665 14.634H46.5833C47.7325 14.634 48.8347 15.0906 49.6474 15.9032C50.4601 16.7159 50.9166 17.8181 50.9166 18.9674V23.3007Z" stroke="white" stroke-width="2" stroke-linecap="round" stroke-linejoin="round"/>
    <path d="M50.9166 10.3007C50.9166 11.45 50.4601 12.5522 49.6474 13.3648C48.8347 14.1775 47.7325 14.634 46.5833 14.634H5.41665C4.26738 14.634 3.16518 14.1775 2.35252 13.3648C1.53986 12.5522 1.08331 11.45 1.08331 10.3007V5.96737C1.08331 4.8181 1.53986 3.7159 2.35252 2.90324C3.16518 2.09058 4.26738 1.63403 5.41665 1.63403H46.5833C47.7325 1.63403 48.8347 2.09058 49.6474 2.90324C50.4601 3.7159 50.9166 4.8181 50.9166 5.96737V10.3007Z" stroke="white" stroke-width="2" stroke-linecap="round" stroke-linejoin="round"/>
    <path d="M50.9166 36.3007C50.9166 37.4499 50.4601 38.5521 49.6474 39.3648C48.8347 40.1775 47.7325 40.634 46.5833 40.634H5.41665C4.26738 40.634 3.16518 40.1775 2.35252 39.3648C1.53986 38.5521 1.08331 37.4499 1.08331 36.3007V31.9674C1.08331 30.8182 1.53986 29.716 2.35252 28.9033C3.16518 28.0906 4.26738 27.634 5.41665 27.634H46.5833C47.7325 27.634 48.8347 28.0906 49.6474 28.9033C50.4601 29.716 50.9166 30.8182 50.9166 31.9674V36.3007Z" stroke="white" stroke-width="2" stroke-linecap="round" stroke-linejoin="round"/>
    <path d="M1.62498 51.4674C1.32583 51.4674 1.08331 51.2249 1.08331 50.9257C1.08331 50.6265 1.32583 50.384 1.62498 50.384" stroke="white" stroke-width="2"/>
    <path d="M1.625 51.4674C1.92415 51.4674 2.16667 51.2249 2.16667 50.9257C2.16667 50.6265 1.92415 50.384 1.625 50.384" stroke="white" stroke-width="2"/>
    <path d="M7.04167 51.4674C6.74251 51.4674 6.5 51.2249 6.5 50.9257C6.5 50.6265 6.74251 50.384 7.04167 50.384" stroke="white" stroke-width="2"/>
    <path d="M7.04163 51.4674C7.34078 51.4674 7.58329 51.2249 7.58329 50.9257C7.58329 50.6265 7.34078 50.384 7.04163 50.384" stroke="white" stroke-width="2"/>
    <path d="M44.9583 51.4674C44.6591 51.4674 44.4166 51.2249 44.4166 50.9257C44.4166 50.6265 44.6591 50.384 44.9583 50.384" stroke="white" stroke-width="2"/>
    <path d="M44.9583 51.4674C45.2575 51.4674 45.5 51.2249 45.5 50.9257C45.5 50.6265 45.2575 50.384 44.9583 50.384" stroke="white" stroke-width="2"/>
    <path d="M50.375 51.4674C50.0758 51.4674 49.8333 51.2249 49.8333 50.9257C49.8333 50.6265 50.0758 50.384 50.375 50.384" stroke="white" stroke-width="2"/>
    <path d="M50.375 51.4674C50.6742 51.4674 50.9167 51.2249 50.9167 50.9257C50.9167 50.6265 50.6742 50.384 50.375 50.384" stroke="white" stroke-width="2"/>
    <path d="M10.2917 8.67574C9.99251 8.67574 9.75 8.43323 9.75 8.13407C9.75 7.83492 9.99251 7.59241 10.2917 7.59241" stroke="white" stroke-width="2"/>
    <path d="M10.2916 8.67574C10.5908 8.67574 10.8333 8.43323 10.8333 8.13407C10.8333 7.83492 10.5908 7.59241 10.2916 7.59241" stroke="white" stroke-width="2"/>
    <path d="M17.875 8.67574C17.5758 8.67574 17.3333 8.43323 17.3333 8.13407C17.3333 7.83492 17.5758 7.59241 17.875 7.59241" stroke="white" stroke-width="2"/>
    <path d="M17.875 8.67574C18.1742 8.67574 18.4167 8.43323 18.4167 8.13407C18.4167 7.83492 18.1742 7.59241 17.875 7.59241" stroke="white" stroke-width="2"/>
    <path d="M10.2917 21.6757C9.99251 21.6757 9.75 21.4332 9.75 21.1341C9.75 20.8349 9.99251 20.5924 10.2917 20.5924" stroke="white" stroke-width="2"/>
    <path d="M10.2917 21.6757C10.5908 21.6757 10.8334 21.4332 10.8334 21.1341C10.8334 20.8349 10.5908 20.5924 10.2917 20.5924" stroke="white" stroke-width="2"/>
    <path d="M10.2917 34.6757C9.99251 34.6757 9.75 34.4333 9.75 34.1341C9.75 33.8349 9.99251 33.5924 10.2917 33.5924" stroke="white" stroke-width="2"/>
    <path d="M10.2917 34.6757C10.5908 34.6757 10.8334 34.4333 10.8334 34.1341C10.8334 33.8349 10.5908 33.5924 10.2917 33.5924" stroke="white" stroke-width="2"/>
    <path d="M17.875 21.6757C17.5758 21.6757 17.3333 21.4332 17.3333 21.1341C17.3333 20.8349 17.5758 20.5924 17.875 20.5924" stroke="white" stroke-width="2"/>
    <path d="M17.875 21.6757C18.1742 21.6757 18.4167 21.4332 18.4167 21.1341C18.4167 20.8349 18.1742 20.5924 17.875 20.5924" stroke="white" stroke-width="2"/>
    <path d="M17.875 34.6757C17.5758 34.6757 17.3333 34.4333 17.3333 34.1341C17.3333 33.8349 17.5758 33.5924 17.875 33.5924" stroke="white" stroke-width="2"/>
    <path d="M17.875 34.6757C18.1742 34.6757 18.4167 34.4333 18.4167 34.1341C18.4167 33.8349 18.1742 33.5924 17.875 33.5924" stroke="white" stroke-width="2"/>
  </g>
  <defs>
    <clipPath id="clip0_60_129">
      <rect width="52" height="52" fill="white" transform="translate(0 0.550659)"/>
    </clipPath>
  </defs>
</svg>